<svg width="33" height="33" viewBox="0 0 33 33" fill="none" xmlns="http://www.w3.org/2000/svg">
<circle cx="16.5" cy="16.5" r="16" fill="#D8F835" stroke="#839C02"/>
<path d="M16.5 13.1914C16.5187 13.1914 16.5365 13.1989 16.5498 13.2119L22.0801 18.7422L22.0869 18.748C22.0939 18.7546 22.0996 18.7627 22.1035 18.7715C22.1073 18.7801 22.1092 18.7894 22.1094 18.7988C22.1095 18.8084 22.1081 18.8183 22.1045 18.8271C22.101 18.8359 22.0955 18.8439 22.0889 18.8506C22.0821 18.8574 22.0733 18.8626 22.0645 18.8662C22.0557 18.8697 22.0465 18.8722 22.0371 18.8721C22.0275 18.8719 22.0176 18.8691 22.0088 18.8652C22.0002 18.8613 21.9918 18.8556 21.9854 18.8486L21.9795 18.8428L21.9736 18.8359L16.8535 13.7168L16.5 13.3633L16.1465 13.7168L11.0264 18.8359C11.0131 18.8492 10.9953 18.8573 10.9766 18.8574C10.9576 18.8574 10.9382 18.8493 10.9248 18.8359C10.9121 18.8227 10.9053 18.8046 10.9053 18.7861C10.9053 18.7674 10.9118 18.7487 10.9248 18.7354L10.9258 18.7363L16.4502 13.2119L16.4492 13.2109C16.4626 13.1979 16.4813 13.1914 16.5 13.1914Z" fill="#839C02" stroke="#839C02"/>
</svg>
