<svg width="24" height="24" viewBox="0 0 24 24" fill="none" xmlns="http://www.w3.org/2000/svg">
<path d="M5.25 5C4.38805 5 3.5614 5.34241 2.9519 5.9519C2.34241 6.5614 2 7.38805 2 8.25V9.5H22V8.25C22 7.8232 21.9159 7.40059 21.7526 7.00628C21.5893 6.61197 21.3499 6.25369 21.0481 5.9519C20.7463 5.65011 20.388 5.41072 19.9937 5.24739C19.5994 5.08406 19.1768 5 18.75 5H5.25ZM2 15.75V11H18.5C17.8047 10.9999 17.1251 11.2069 16.5479 11.5946C15.9707 11.9823 15.5221 12.5332 15.2592 13.1769C14.9964 13.8206 14.9312 14.528 15.072 15.2089C15.2129 15.8899 15.5533 16.5134 16.05 17H15.773C14.51 17 13.443 17.844 13.109 19H5.25C4.38805 19 3.5614 18.6576 2.9519 18.0481C2.34241 17.4386 2 16.612 2 15.75ZM21 14.5C21 15.163 20.7366 15.7989 20.2678 16.2678C19.7989 16.7366 19.163 17 18.5 17C17.837 17 17.2011 16.7366 16.7322 16.2678C16.2634 15.7989 16 15.163 16 14.5C16 13.837 16.2634 13.2011 16.7322 12.7322C17.2011 12.2634 17.837 12 18.5 12C19.163 12 19.7989 12.2634 20.2678 12.7322C20.7366 13.2011 21 13.837 21 14.5ZM23 19.875C23 21.431 21.714 23 18.5 23C15.286 23 14 21.437 14 19.875V19.772C14 18.792 14.794 18 15.773 18H21.227C22.207 18 23 18.793 23 19.772V19.875Z" fill="#0C0A0B"/>
</svg>
