<svg width="106" height="43" viewBox="0 0 106 43" fill="none" xmlns="http://www.w3.org/2000/svg">
<path fill-rule="evenodd" clip-rule="evenodd" d="M59.2617 33.5168C62.012 33.5169 64.1199 35.6297 64.1201 38.2502C64.1201 40.8709 62.0616 43.0001 59.2617 43.0002C56.4617 43.0002 54.4355 40.9193 54.4355 38.2502C54.4357 35.6296 56.5113 33.5168 59.2617 33.5168ZM93.3721 33.5168C94.0957 33.5168 94.8869 33.6809 95.3643 33.926L95.332 35.9572C95.0024 35.8097 94.36 35.5803 93.5215 35.5803C91.6771 35.5803 90.5246 36.7437 90.5244 38.2502C90.5244 39.757 91.6769 40.9523 93.5215 40.9524C94.3601 40.9524 95.0024 40.7235 95.332 40.5598L95.3643 42.591C94.8869 42.8362 94.0956 43.0002 93.3555 43.0002C90.2924 43.0002 88.2334 40.9031 88.2334 38.2502C88.2336 35.6296 90.3091 33.5168 93.3721 33.5168ZM101.147 33.5168C103.486 33.517 105.363 35.1549 105.363 37.9231C105.363 38.3329 105.331 38.6765 105.281 38.9065V38.9055H98.8408C99.0882 40.2646 100.142 41.0178 101.838 41.0178C103.189 41.0178 104.16 40.6907 104.886 40.2649L104.918 42.2463C103.962 42.8198 102.81 43.0002 101.641 43.0002C98.6105 43.0001 96.584 41.0838 96.584 38.2824C96.5842 35.4811 98.5618 33.5168 101.147 33.5168ZM45.8213 34.844C46.4799 34.0584 47.4353 33.5178 48.7363 33.5178C51.2231 33.5178 53.1346 35.5316 53.1348 38.136H53.1338C53.1336 40.8378 51.0417 42.999 48.3086 42.9992C45.5752 42.9992 43.5645 40.8708 43.5645 38.0373V29.9631H45.8213V34.844ZM68.3213 38.6594C68.3213 40.0356 68.9799 40.9846 70.4131 40.9846C71.8461 40.9844 72.5049 40.0515 72.5049 38.6594V33.7629H74.876V38.5119C74.8759 41.2792 73.2956 42.9991 70.4141 42.9992C67.5323 42.9992 65.9504 41.2634 65.9502 38.4953H65.9492V33.7629H68.3213V38.6594ZM22.1064 8.84299C23.9266 7.72368 26.126 7.67953 28.002 8.71115C29.8662 9.7428 30.9717 11.6207 30.9492 13.7287L30.8047 27.1115L27.8682 28.9006L28.0352 13.6965C28.046 12.6541 27.4989 11.7206 26.5723 11.2043C25.6456 10.6889 24.5517 10.7223 23.6475 11.2707L4.26465 23.1701C3.40459 23.7078 2.91319 24.5752 2.91309 25.5744C2.91309 26.5738 3.41628 27.441 4.27539 27.968L23.4014 39.6057C24.2948 40.155 25.377 40.1757 26.293 39.6819C27.2079 39.188 27.7675 38.2768 27.7783 37.2453L27.8008 35.6428V35.6399L30.7148 33.8508L30.6816 37.2756C30.6591 39.3505 29.542 41.1951 27.6885 42.1936C26.8068 42.666 25.8466 42.9074 24.8975 42.9074C23.8486 42.9074 22.7987 42.6119 21.8613 42.0412L2.73535 30.3928C1.02763 29.3611 0 27.55 0 25.5735C0.000151667 23.5971 1.01611 21.7973 2.72461 20.7434L22.1064 8.84299ZM82.665 33.5168C84.9377 33.5168 86.3875 34.9416 86.3877 37.2346V42.7375H84V37.7912C83.9999 36.3169 83.2753 35.4661 82.0068 35.466C80.7383 35.466 79.7013 36.4645 79.7012 38.0373V42.7375H77.3125V33.7629H79.5859V35.1057C80.0799 34.2379 81.249 33.5169 82.665 33.5168ZM48.3408 35.549C46.858 35.549 45.7383 36.7446 45.7383 38.2844C45.7384 39.8241 46.8096 40.9865 48.3408 40.9865C49.872 40.9864 50.8604 39.7744 50.8604 38.2678V38.2668C50.8602 36.7271 49.8234 35.5492 48.3408 35.549ZM59.2617 35.5481C57.7304 35.5481 56.7091 36.7437 56.709 38.2502C56.709 39.757 57.7798 40.9856 59.2617 40.9856C60.7435 40.9854 61.8301 39.8061 61.8301 38.2502C61.8299 36.7437 60.7929 35.5482 59.2617 35.5481ZM101.097 35.4328C99.9441 35.4329 99.1212 36.1703 98.8574 37.3654H103.204C103.123 36.1541 102.315 35.4328 101.097 35.4328ZM21.626 0.7424C23.5019 -0.290142 25.7013 -0.245102 27.5215 0.874236L46.9033 12.7746L46.9053 12.7776C48.6129 13.8198 49.618 15.6205 49.6182 17.5959C49.6182 19.5716 48.5914 21.372 46.8828 22.4153L27.7568 34.0637C26.8195 34.645 25.7696 34.9299 24.7207 34.9299C23.7714 34.9299 22.8114 34.6884 21.9297 34.216C20.0763 33.2166 18.9591 31.3729 18.9365 29.2981L18.792 16.0256L21.6836 14.2688L21.8516 29.2756C21.8624 30.3072 22.42 31.2192 23.3359 31.7131C24.2518 32.2068 25.3342 32.1844 26.2275 31.636L45.3535 20.01C46.2127 19.483 46.7158 18.6149 46.7158 17.6164C46.7157 16.6181 46.2241 15.74 45.3643 15.2131L25.9814 3.31271C25.5118 3.01664 24.9874 2.87326 24.4629 2.87326C23.9825 2.8733 23.5018 2.99402 23.0557 3.23556C22.1291 3.75097 21.582 4.68455 21.5928 5.72775L21.6152 7.61545L18.7236 9.38205L18.6787 5.75998C18.6562 3.65196 19.75 1.77405 21.626 0.7424Z" fill="#433F41"/>
</svg>
